<svg width="204" height="33" viewBox="0 0 204 33" fill="none" xmlns="http://www.w3.org/2000/svg">
<path d="M0 31.9846V0.630001H18.0218C22.2091 0.630001 25.3819 1.34077 27.54 2.76232C29.7303 4.15155 30.8254 6.23539 30.8254 9.01385C30.8254 10.7908 30.3906 12.1962 29.5209 13.23C28.6512 14.2315 27.4111 14.9746 25.8006 15.4592C24.2223 15.9439 22.3541 16.2508 20.196 16.38L20.3893 16.0408C21.9676 16.0731 23.4493 16.1862 24.8343 16.38C26.2516 16.5739 27.4916 16.9292 28.5546 17.4462C29.6175 17.9631 30.455 18.69 31.067 19.6269C31.679 20.5315 31.985 21.7269 31.985 23.2131C31.985 25.1515 31.4697 26.7669 30.4389 28.0592C29.4082 29.3192 27.9748 30.2723 26.1388 30.9185C24.3028 31.5646 22.1769 31.92 19.7611 31.9846H0ZM6.42599 26.6539H19.0847C21.114 26.6539 22.6762 26.3308 23.7714 25.6846C24.8665 25.0062 25.4141 23.94 25.4141 22.4862C25.4141 21.42 25.092 20.6446 24.4478 20.16C23.8036 19.6754 22.95 19.3846 21.887 19.2877C20.8241 19.1585 19.6806 19.0939 18.4566 19.0939H6.42599V26.6539ZM6.42599 13.9085H17.7802C19.8095 13.9085 21.3717 13.6177 22.4668 13.0362C23.562 12.4223 24.1096 11.3885 24.1096 9.93462C24.1096 8.48078 23.562 7.46309 22.4668 6.88155C21.3717 6.2677 19.9222 5.96078 18.1184 5.96078H6.42599V13.9085ZM46.1617 25.1515V19.7723H66.8408V25.1515H46.1617ZM38.3828 31.9846L53.0708 0.630001H60.0283L74.8613 31.9846H67.8555L55.0035 3.73155H58.0957L45.3403 31.9846H38.3828ZM118.192 20.6931C117.903 23.2131 117.017 25.3615 115.535 27.1385C114.053 28.9154 112.04 30.2723 109.496 31.2092C106.951 32.1462 103.923 32.6146 100.412 32.6146C97.4811 32.6146 94.7915 32.2754 92.3435 31.5969C89.9277 30.9185 87.834 29.9008 86.0625 28.5439C84.3231 27.1869 82.9703 25.5069 82.0039 23.5039C81.0376 21.4685 80.5545 19.0939 80.5545 16.38C80.5545 13.6662 81.0376 11.2915 82.0039 9.25616C82.9703 7.22078 84.3231 5.52462 86.0625 4.1677C87.834 2.77847 89.9277 1.74462 92.3435 1.06615C94.7915 0.355385 97.4811 0 100.412 0C103.923 0 106.951 0.484616 109.496 1.45384C112.072 2.42308 114.102 3.81232 115.583 5.62155C117.065 7.39847 117.935 9.56309 118.192 12.1154H111.815C111.396 10.7585 110.687 9.59539 109.689 8.62616C108.723 7.62462 107.466 6.86539 105.92 6.34847C104.374 5.83155 102.538 5.57309 100.412 5.57309C97.771 5.57309 95.4518 5.99309 93.4548 6.83309C91.4577 7.64078 89.9116 8.85232 88.8165 10.4677C87.7213 12.0508 87.1737 14.0215 87.1737 16.38C87.1737 18.7062 87.7213 20.6608 88.8165 22.2439C89.9116 23.8269 91.4577 25.0385 93.4548 25.8785C95.4518 26.6862 97.771 27.09 100.412 27.09C102.538 27.09 104.358 26.8315 105.872 26.3146C107.418 25.7977 108.674 25.0546 109.641 24.0854C110.639 23.1162 111.364 21.9854 111.815 20.6931H118.192ZM133.98 13.5692H158.766V18.9485H133.98V13.5692ZM157.704 0.630001H164.13V31.9846H157.704V0.630001ZM128.328 0.630001H134.754V31.9846H128.328V0.630001ZM173.335 21.42H179.858C179.987 22.5185 180.486 23.52 181.356 24.4246C182.258 25.2969 183.433 25.9915 184.883 26.5085C186.332 26.9931 187.959 27.2354 189.763 27.2354C191.405 27.2354 192.758 27.0577 193.821 26.7023C194.884 26.3469 195.673 25.8462 196.189 25.2C196.704 24.5539 196.962 23.7785 196.962 22.8739C196.962 22.0015 196.64 21.3392 195.995 20.8869C195.351 20.4023 194.337 20.0146 192.952 19.7239C191.566 19.4008 189.747 19.0777 187.492 18.7546C185.72 18.4962 184.045 18.1408 182.467 17.6885C180.889 17.2039 179.488 16.59 178.264 15.8469C177.072 15.1039 176.121 14.1992 175.413 13.1331C174.736 12.0346 174.398 10.7423 174.398 9.25616C174.398 7.41462 174.914 5.79924 175.944 4.41001C177.007 3.02078 178.569 1.93846 180.631 1.16308C182.692 0.387693 185.221 0 188.217 0C192.726 0 196.189 0.969231 198.604 2.9077C201.052 4.81385 202.244 7.44693 202.18 10.8069H195.899C195.77 8.90078 194.965 7.5277 193.483 6.6877C192.034 5.8477 190.197 5.4277 187.975 5.4277C185.913 5.4277 184.206 5.73462 182.854 6.34847C181.533 6.96232 180.873 8.01232 180.873 9.49847C180.873 10.08 181.034 10.5969 181.356 11.0492C181.678 11.4692 182.225 11.8408 182.998 12.1639C183.772 12.4869 184.818 12.7939 186.139 13.0846C187.46 13.3754 189.102 13.6662 191.067 13.9569C192.903 14.2154 194.562 14.5708 196.044 15.0231C197.558 15.4431 198.846 16.0085 199.909 16.7192C201.004 17.3977 201.842 18.27 202.421 19.3362C203.001 20.4023 203.291 21.7108 203.291 23.2615C203.291 25.1677 202.792 26.8315 201.793 28.2531C200.827 29.6423 199.313 30.7246 197.252 31.5C195.222 32.2754 192.581 32.6631 189.328 32.6631C187.009 32.6631 184.963 32.4208 183.192 31.9362C181.42 31.4192 179.89 30.7408 178.602 29.9008C177.313 29.0608 176.266 28.14 175.461 27.1385C174.656 26.1369 174.076 25.1354 173.722 24.1339C173.4 23.1323 173.271 22.2277 173.335 21.42Z" fill="#111111"/>
</svg>
